<svg width="65" height="69" viewBox="0 0 65 69" fill="none" xmlns="http://www.w3.org/2000/svg">
<path d="M3.962 56.186C5.418 56.186 6.53333 56.4473 7.308 56.97C8.08267 57.4833 8.47 58.286 8.47 59.378C8.47 60.0593 8.31133 60.6147 7.994 61.044C7.686 61.464 7.238 61.7953 6.65 62.038C6.846 62.2807 7.05133 62.5607 7.266 62.878C7.48067 63.186 7.69067 63.5127 7.896 63.858C8.11067 64.194 8.316 64.5487 8.512 64.922C8.708 65.286 8.89 65.6453 9.058 66H6.608C6.43067 65.6827 6.24867 65.3607 6.062 65.034C5.88467 64.7073 5.698 64.39 5.502 64.082C5.31533 63.774 5.12867 63.4847 4.942 63.214C4.75533 62.934 4.56867 62.682 4.382 62.458H3.304V66H1.12V56.438C1.596 56.3447 2.086 56.2793 2.59 56.242C3.10333 56.2047 3.56067 56.186 3.962 56.186ZM4.088 58.048C3.92933 58.048 3.78467 58.0527 3.654 58.062C3.53267 58.0713 3.416 58.0807 3.304 58.09V60.722H3.92C4.74133 60.722 5.32933 60.6193 5.684 60.414C6.03867 60.2087 6.216 59.8587 6.216 59.364C6.216 58.888 6.034 58.552 5.67 58.356C5.31533 58.1507 4.788 58.048 4.088 58.048ZM17.3914 66C17.2887 65.664 17.1721 65.3187 17.0414 64.964C16.9201 64.6093 16.7987 64.2547 16.6774 63.9H12.8974C12.7761 64.2547 12.6501 64.6093 12.5194 64.964C12.3981 65.3187 12.2861 65.664 12.1834 66H9.91539C10.2794 64.9547 10.6247 63.9887 10.9514 63.102C11.2781 62.2153 11.5954 61.38 11.9034 60.596C12.2207 59.812 12.5287 59.07 12.8274 58.37C13.1354 57.6607 13.4527 56.97 13.7794 56.298H15.8654C16.1827 56.97 16.4954 57.6607 16.8034 58.37C17.1114 59.07 17.4194 59.812 17.7274 60.596C18.0447 61.38 18.3667 62.2153 18.6934 63.102C19.0201 63.9887 19.3654 64.9547 19.7294 66H17.3914ZM14.7734 58.496C14.7267 58.636 14.6567 58.8273 14.5634 59.07C14.4701 59.3127 14.3627 59.5927 14.2414 59.91C14.1201 60.2273 13.9847 60.5773 13.8354 60.96C13.6954 61.3427 13.5507 61.744 13.4014 62.164H16.1594C16.0101 61.744 15.8654 61.3427 15.7254 60.96C15.5854 60.5773 15.4501 60.2273 15.3194 59.91C15.1981 59.5927 15.0907 59.3127 14.9974 59.07C14.9041 58.8273 14.8294 58.636 14.7734 58.496ZM27.4952 66C26.8699 64.8893 26.1932 63.7927 25.4652 62.71C24.7372 61.6273 23.9626 60.6053 23.1412 59.644V66H20.9852V56.298H22.7632C23.0712 56.606 23.4119 56.984 23.7852 57.432C24.1586 57.88 24.5366 58.3607 24.9192 58.874C25.3112 59.378 25.6986 59.9053 26.0812 60.456C26.4639 60.9973 26.8232 61.52 27.1592 62.024V56.298H29.3292V66H27.4952ZM37.2933 66C37.0973 65.6827 36.8639 65.342 36.5933 64.978C36.3319 64.6047 36.0426 64.236 35.7253 63.872C35.4173 63.4987 35.0953 63.144 34.7593 62.808C34.4233 62.4627 34.0873 62.1593 33.7513 61.898V66H31.5673V56.298H33.7513V59.966C34.3206 59.3687 34.8899 58.748 35.4593 58.104C36.0379 57.4507 36.5746 56.8487 37.0693 56.298H39.6593C38.9966 57.082 38.3293 57.838 37.6573 58.566C36.9946 59.294 36.2946 60.0267 35.5573 60.764C36.3319 61.408 37.0786 62.1733 37.7973 63.06C38.5253 63.9467 39.2206 64.9267 39.8833 66H37.2933ZM41.1376 56.298H43.3216V66H41.1376V56.298ZM52.0773 66C51.4519 64.8893 50.7753 63.7927 50.0473 62.71C49.3193 61.6273 48.5446 60.6053 47.7233 59.644V66H45.5673V56.298H47.3453C47.6533 56.606 47.9939 56.984 48.3673 57.432C48.7406 57.88 49.1186 58.3607 49.5013 58.874C49.8933 59.378 50.2806 59.9053 50.6633 60.456C51.0459 60.9973 51.4053 61.52 51.7413 62.024V56.298H53.9113V66H52.0773ZM60.8813 57.978C59.864 57.978 59.1266 58.2627 58.6693 58.832C58.2213 59.392 57.9973 60.162 57.9973 61.142C57.9973 61.618 58.0533 62.052 58.1653 62.444C58.2773 62.8267 58.4453 63.158 58.6693 63.438C58.8933 63.718 59.1733 63.9373 59.5093 64.096C59.8453 64.2453 60.2373 64.32 60.6853 64.32C60.928 64.32 61.1333 64.3153 61.3013 64.306C61.4786 64.2967 61.6326 64.278 61.7633 64.25V60.876H63.9473V65.678C63.686 65.7807 63.266 65.888 62.6873 66C62.1086 66.1213 61.3946 66.182 60.5453 66.182C59.8173 66.182 59.1546 66.07 58.5573 65.846C57.9693 65.622 57.4653 65.2953 57.0453 64.866C56.6253 64.4367 56.2986 63.9093 56.0653 63.284C55.8413 62.6587 55.7293 61.9447 55.7293 61.142C55.7293 60.33 55.8553 59.6113 56.1073 58.986C56.3593 58.3607 56.7046 57.8333 57.1433 57.404C57.582 56.9653 58.0953 56.634 58.6833 56.41C59.2806 56.186 59.9153 56.074 60.5873 56.074C61.0446 56.074 61.4553 56.1067 61.8193 56.172C62.1926 56.228 62.51 56.298 62.7713 56.382C63.042 56.4567 63.2613 56.536 63.4293 56.62C63.6066 56.704 63.7326 56.7693 63.8073 56.816L63.1773 58.566C62.8786 58.4073 62.5333 58.272 62.1413 58.16C61.7586 58.0387 61.3386 57.978 60.8813 57.978Z" fill="#00FFA3"/>
<circle cx="33" cy="24" r="24" fill="#00FFA3"/>
<path d="M24 34L34 24L44 34" stroke="#124040" stroke-width="2" stroke-linecap="round" stroke-linejoin="round"/>
<path d="M24 24L34 14L44 24" stroke="#124040" stroke-width="2" stroke-linecap="round" stroke-linejoin="round"/>
</svg>
