<svg width="107" height="69" viewBox="0 0 107 69" fill="none" xmlns="http://www.w3.org/2000/svg">
<path d="M3.696 56.298C3.864 56.606 4.05533 56.9887 4.27 57.446C4.494 57.894 4.72267 58.384 4.956 58.916C5.19867 59.4387 5.43667 59.9753 5.67 60.526C5.90333 61.0767 6.12267 61.5947 6.328 62.08C6.53333 61.5947 6.75267 61.0767 6.986 60.526C7.21933 59.9753 7.45267 59.4387 7.686 58.916C7.92867 58.384 8.15733 57.894 8.372 57.446C8.596 56.9887 8.792 56.606 8.96 56.298H10.948C11.0413 56.942 11.1253 57.6653 11.2 58.468C11.284 59.2613 11.354 60.092 11.41 60.96C11.4753 61.8187 11.5313 62.682 11.578 63.55C11.634 64.418 11.6807 65.2347 11.718 66H9.59C9.562 65.0573 9.52467 64.0307 9.478 62.92C9.43133 61.8093 9.36133 60.6893 9.268 59.56C9.1 59.952 8.91333 60.386 8.708 60.862C8.50267 61.338 8.29733 61.814 8.092 62.29C7.896 62.766 7.70467 63.2233 7.518 63.662C7.33133 64.0913 7.17267 64.46 7.042 64.768H5.516C5.38533 64.46 5.22667 64.0913 5.04 63.662C4.85333 63.2233 4.65733 62.766 4.452 62.29C4.256 61.814 4.05533 61.338 3.85 60.862C3.64467 60.386 3.458 59.952 3.29 59.56C3.19667 60.6893 3.12667 61.8093 3.08 62.92C3.03333 64.0307 2.996 65.0573 2.968 66H0.84C0.877333 65.2347 0.919333 64.418 0.966 63.55C1.022 62.682 1.078 61.8187 1.134 60.96C1.19933 60.092 1.26933 59.2613 1.344 58.468C1.428 57.6653 1.51667 56.942 1.61 56.298H3.696ZM13.6845 66V56.298H20.2365V58.132H15.8685V60.036H19.7465V61.828H15.8685V64.166H20.5585V66H13.6845ZM25.9687 66.196C25.2874 66.196 24.6994 66.1027 24.2047 65.916C23.71 65.72 23.2994 65.454 22.9727 65.118C22.6554 64.7727 22.4174 64.3667 22.2587 63.9C22.1094 63.424 22.0347 62.9013 22.0347 62.332V56.298H24.2187V62.15C24.2187 62.542 24.2607 62.878 24.3447 63.158C24.438 63.4287 24.5594 63.6527 24.7087 63.83C24.8674 63.998 25.054 64.1193 25.2687 64.194C25.4927 64.2687 25.7354 64.306 25.9967 64.306C26.5287 64.306 26.958 64.1427 27.2847 63.816C27.6207 63.4893 27.7887 62.934 27.7887 62.15V56.298H29.9727V62.332C29.9727 62.9013 29.8934 63.424 29.7347 63.9C29.576 64.376 29.3334 64.7867 29.0067 65.132C28.68 65.468 28.2647 65.7293 27.7607 65.916C27.2567 66.1027 26.6594 66.196 25.9687 66.196ZM39.8604 66.196C38.2831 66.196 37.0791 65.7573 36.2484 64.88C35.4271 64.0027 35.0164 62.7567 35.0164 61.142C35.0164 60.3393 35.1424 59.6253 35.3944 59C35.6464 58.3653 35.9917 57.8333 36.4304 57.404C36.8691 56.9653 37.3917 56.634 37.9984 56.41C38.6051 56.186 39.2631 56.074 39.9724 56.074C40.3831 56.074 40.7564 56.1067 41.0924 56.172C41.4284 56.228 41.7224 56.298 41.9744 56.382C42.2264 56.4567 42.4364 56.536 42.6044 56.62C42.7724 56.704 42.8937 56.7693 42.9684 56.816L42.3384 58.58C42.0397 58.4213 41.6897 58.286 41.2884 58.174C40.8964 58.062 40.4484 58.006 39.9444 58.006C39.6084 58.006 39.2771 58.062 38.9504 58.174C38.6331 58.286 38.3484 58.468 38.0964 58.72C37.8537 58.9627 37.6577 59.28 37.5084 59.672C37.3591 60.064 37.2844 60.54 37.2844 61.1C37.2844 61.548 37.3311 61.968 37.4244 62.36C37.5271 62.7427 37.6857 63.074 37.9004 63.354C38.1244 63.634 38.4137 63.858 38.7684 64.026C39.1231 64.1847 39.5524 64.264 40.0564 64.264C40.3737 64.264 40.6584 64.2453 40.9104 64.208C41.1624 64.1707 41.3864 64.1287 41.5824 64.082C41.7784 64.026 41.9511 63.9653 42.1004 63.9C42.2497 63.8347 42.3851 63.774 42.5064 63.718L43.1084 65.468C42.8004 65.6547 42.3664 65.8227 41.8064 65.972C41.2464 66.1213 40.5977 66.196 39.8604 66.196ZM45.9931 61.142C45.9931 61.618 46.0491 62.0473 46.1611 62.43C46.2824 62.8127 46.4504 63.144 46.6651 63.424C46.8891 63.6947 47.1597 63.9047 47.4771 64.054C47.7944 64.2033 48.1584 64.278 48.5691 64.278C48.9704 64.278 49.3297 64.2033 49.6471 64.054C49.9737 63.9047 50.2444 63.6947 50.4591 63.424C50.6831 63.144 50.8511 62.8127 50.9631 62.43C51.0844 62.0473 51.1451 61.618 51.1451 61.142C51.1451 60.666 51.0844 60.2367 50.9631 59.854C50.8511 59.462 50.6831 59.1307 50.4591 58.86C50.2444 58.58 49.9737 58.3653 49.6471 58.216C49.3297 58.0667 48.9704 57.992 48.5691 57.992C48.1584 57.992 47.7944 58.0713 47.4771 58.23C47.1597 58.3793 46.8891 58.594 46.6651 58.874C46.4504 59.1447 46.2824 59.476 46.1611 59.868C46.0491 60.2507 45.9931 60.6753 45.9931 61.142ZM53.3991 61.142C53.3991 61.9727 53.2731 62.7053 53.0211 63.34C52.7784 63.9653 52.4424 64.4927 52.0131 64.922C51.5837 65.342 51.0704 65.6593 50.4731 65.874C49.8851 66.0887 49.2504 66.196 48.5691 66.196C47.9064 66.196 47.2811 66.0887 46.6931 65.874C46.1051 65.6593 45.5917 65.342 45.1531 64.922C44.7144 64.4927 44.3691 63.9653 44.1171 63.34C43.8651 62.7053 43.7391 61.9727 43.7391 61.142C43.7391 60.3113 43.8697 59.5833 44.1311 58.958C44.3924 58.3233 44.7424 57.7913 45.1811 57.362C45.6291 56.9327 46.1424 56.6107 46.7211 56.396C47.3091 56.1813 47.9251 56.074 48.5691 56.074C49.2317 56.074 49.8571 56.1813 50.4451 56.396C51.0331 56.6107 51.5464 56.9327 51.9851 57.362C52.4237 57.7913 52.7691 58.3233 53.0211 58.958C53.2731 59.5833 53.3991 60.3113 53.3991 61.142ZM61.7296 66C61.1043 64.8893 60.4276 63.7927 59.6996 62.71C58.9716 61.6273 58.1969 60.6053 57.3756 59.644V66H55.2196V56.298H56.9976C57.3056 56.606 57.6463 56.984 58.0196 57.432C58.3929 57.88 58.7709 58.3607 59.1536 58.874C59.5456 59.378 59.9329 59.9053 60.3156 60.456C60.6983 60.9973 61.0576 61.52 61.3936 62.024V56.298H63.5636V66H61.7296ZM68.4476 64.334C68.7556 64.334 69.0076 64.3107 69.2036 64.264C69.409 64.208 69.5723 64.138 69.6936 64.054C69.815 63.9607 69.899 63.8533 69.9456 63.732C69.9923 63.6107 70.0156 63.4753 70.0156 63.326C70.0156 63.0087 69.8663 62.7473 69.5676 62.542C69.269 62.3273 68.7556 62.0987 68.0276 61.856C67.7103 61.744 67.393 61.618 67.0756 61.478C66.7583 61.3287 66.4736 61.1467 66.2216 60.932C65.9696 60.708 65.7643 60.442 65.6056 60.134C65.447 59.8167 65.3676 59.434 65.3676 58.986C65.3676 58.538 65.4516 58.1367 65.6196 57.782C65.7876 57.418 66.0256 57.11 66.3336 56.858C66.6416 56.606 67.015 56.4147 67.4536 56.284C67.8923 56.144 68.387 56.074 68.9376 56.074C69.591 56.074 70.1556 56.144 70.6316 56.284C71.1076 56.424 71.4996 56.578 71.8076 56.746L71.1776 58.468C70.907 58.328 70.6036 58.2067 70.2676 58.104C69.941 57.992 69.5443 57.936 69.0776 57.936C68.555 57.936 68.177 58.0107 67.9436 58.16C67.7196 58.3 67.6076 58.5193 67.6076 58.818C67.6076 58.9953 67.6496 59.1447 67.7336 59.266C67.8176 59.3873 67.9343 59.4993 68.0836 59.602C68.2423 59.6953 68.4196 59.784 68.6156 59.868C68.821 59.9427 69.045 60.022 69.2876 60.106C69.7916 60.2927 70.2303 60.4793 70.6036 60.666C70.977 60.8433 71.285 61.0533 71.5276 61.296C71.7796 61.5387 71.9663 61.8233 72.0876 62.15C72.209 62.4767 72.2696 62.8733 72.2696 63.34C72.2696 64.2453 71.9523 64.95 71.3176 65.454C70.683 65.9487 69.7263 66.196 68.4476 66.196C68.0183 66.196 67.631 66.168 67.2856 66.112C66.9403 66.0653 66.6323 66.0047 66.3616 65.93C66.1003 65.8553 65.8716 65.776 65.6756 65.692C65.489 65.608 65.3303 65.5287 65.1996 65.454L65.8156 63.718C66.105 63.8767 66.4596 64.0213 66.8796 64.152C67.309 64.2733 67.8316 64.334 68.4476 64.334ZM77.7441 66.196C77.0627 66.196 76.4747 66.1027 75.9801 65.916C75.4854 65.72 75.0747 65.454 74.7481 65.118C74.4307 64.7727 74.1927 64.3667 74.0341 63.9C73.8847 63.424 73.8101 62.9013 73.8101 62.332V56.298H75.9941V62.15C75.9941 62.542 76.0361 62.878 76.1201 63.158C76.2134 63.4287 76.3347 63.6527 76.4841 63.83C76.6427 63.998 76.8294 64.1193 77.0441 64.194C77.2681 64.2687 77.5107 64.306 77.7721 64.306C78.3041 64.306 78.7334 64.1427 79.0601 63.816C79.3961 63.4893 79.5641 62.934 79.5641 62.15V56.298H81.7481V62.332C81.7481 62.9013 81.6687 63.424 81.5101 63.9C81.3514 64.376 81.1087 64.7867 80.7821 65.132C80.4554 65.468 80.0401 65.7293 79.5361 65.916C79.0321 66.1027 78.4347 66.196 77.7441 66.196ZM86.4245 56.298C86.5925 56.606 86.7838 56.9887 86.9985 57.446C87.2225 57.894 87.4512 58.384 87.6845 58.916C87.9272 59.4387 88.1652 59.9753 88.3985 60.526C88.6318 61.0767 88.8512 61.5947 89.0565 62.08C89.2618 61.5947 89.4812 61.0767 89.7145 60.526C89.9478 59.9753 90.1812 59.4387 90.4145 58.916C90.6572 58.384 90.8858 57.894 91.1005 57.446C91.3245 56.9887 91.5205 56.606 91.6885 56.298H93.6765C93.7698 56.942 93.8538 57.6653 93.9285 58.468C94.0125 59.2613 94.0825 60.092 94.1385 60.96C94.2038 61.8187 94.2598 62.682 94.3065 63.55C94.3625 64.418 94.4092 65.2347 94.4465 66H92.3185C92.2905 65.0573 92.2532 64.0307 92.2065 62.92C92.1598 61.8093 92.0898 60.6893 91.9965 59.56C91.8285 59.952 91.6418 60.386 91.4365 60.862C91.2312 61.338 91.0258 61.814 90.8205 62.29C90.6245 62.766 90.4332 63.2233 90.2465 63.662C90.0598 64.0913 89.9012 64.46 89.7705 64.768H88.2445C88.1138 64.46 87.9552 64.0913 87.7685 63.662C87.5818 63.2233 87.3858 62.766 87.1805 62.29C86.9845 61.814 86.7838 61.338 86.5785 60.862C86.3732 60.386 86.1865 59.952 86.0185 59.56C85.9252 60.6893 85.8552 61.8093 85.8085 62.92C85.7618 64.0307 85.7245 65.0573 85.6965 66H83.5685C83.6058 65.2347 83.6478 64.418 83.6945 63.55C83.7505 62.682 83.8065 61.8187 83.8625 60.96C83.9278 60.092 83.9978 59.2613 84.0725 58.468C84.1565 57.6653 84.2452 56.942 84.3385 56.298H86.4245ZM98.247 61.142C98.247 61.618 98.303 62.0473 98.415 62.43C98.5363 62.8127 98.7043 63.144 98.919 63.424C99.143 63.6947 99.4136 63.9047 99.731 64.054C100.048 64.2033 100.412 64.278 100.823 64.278C101.224 64.278 101.584 64.2033 101.901 64.054C102.228 63.9047 102.498 63.6947 102.713 63.424C102.937 63.144 103.105 62.8127 103.217 62.43C103.338 62.0473 103.399 61.618 103.399 61.142C103.399 60.666 103.338 60.2367 103.217 59.854C103.105 59.462 102.937 59.1307 102.713 58.86C102.498 58.58 102.228 58.3653 101.901 58.216C101.584 58.0667 101.224 57.992 100.823 57.992C100.412 57.992 100.048 58.0713 99.731 58.23C99.4136 58.3793 99.143 58.594 98.919 58.874C98.7043 59.1447 98.5363 59.476 98.415 59.868C98.303 60.2507 98.247 60.6753 98.247 61.142ZM105.653 61.142C105.653 61.9727 105.527 62.7053 105.275 63.34C105.032 63.9653 104.696 64.4927 104.267 64.922C103.838 65.342 103.324 65.6593 102.727 65.874C102.139 66.0887 101.504 66.196 100.823 66.196C100.16 66.196 99.535 66.0887 98.947 65.874C98.359 65.6593 97.8456 65.342 97.407 64.922C96.9683 64.4927 96.623 63.9653 96.371 63.34C96.119 62.7053 95.993 61.9727 95.993 61.142C95.993 60.3113 96.1236 59.5833 96.385 58.958C96.6463 58.3233 96.9963 57.7913 97.435 57.362C97.883 56.9327 98.3963 56.6107 98.975 56.396C99.563 56.1813 100.179 56.074 100.823 56.074C101.486 56.074 102.111 56.1813 102.699 56.396C103.287 56.6107 103.8 56.9327 104.239 57.362C104.678 57.7913 105.023 58.3233 105.275 58.958C105.527 59.5833 105.653 60.3113 105.653 61.142Z" fill="#00FFA3"/>
<circle cx="54" cy="24" r="24" fill="#00FFA3"/>
<path d="M49 37H59" stroke="#124040" stroke-width="2" stroke-linecap="round" stroke-linejoin="round"/>
<path d="M47.8375 28.8749C46.647 27.9492 45.6828 26.7647 45.0179 25.4111C44.353 24.0576 44.0049 22.5704 44 21.0624C43.975 15.6374 48.3375 11.1249 53.7625 10.9999C55.8621 10.9501 57.924 11.5626 59.6559 12.7506C61.3878 13.9385 62.7018 15.6416 63.4114 17.6183C64.121 19.5949 64.1902 21.7448 63.6093 23.7631C63.0284 25.7813 61.8268 27.5654 60.175 28.8624C59.8101 29.1444 59.5145 29.5062 59.3109 29.92C59.1072 30.3338 59.0009 30.7887 59 31.2499V31.9999C59 32.2651 58.8946 32.5195 58.7071 32.707C58.5196 32.8945 58.2652 32.9999 58 32.9999H50C49.7348 32.9999 49.4804 32.8945 49.2929 32.707C49.1053 32.5195 49 32.2651 49 31.9999V31.2499C48.9969 30.7921 48.8907 30.341 48.6895 29.9298C48.4883 29.5187 48.1971 29.1581 47.8375 28.8749V28.8749Z" stroke="#124040" stroke-width="2" stroke-linecap="round" stroke-linejoin="round"/>
<path d="M55.0125 15.1001C56.2347 15.3073 57.3625 15.8887 58.2402 16.7642C59.1179 17.6396 59.7022 18.7659 59.9125 19.9876" stroke="#124040" stroke-width="2" stroke-linecap="round" stroke-linejoin="round"/>
</svg>
