<svg width="84" height="69" viewBox="0 0 84 69" fill="none" xmlns="http://www.w3.org/2000/svg">
<path d="M1.12 66V56.298H7.672V58.132H3.304V60.036H7.182V61.828H3.304V64.166H7.994V66H1.12ZM14.0342 66.196C12.4569 66.196 11.2529 65.7573 10.4222 64.88C9.6009 64.0027 9.19023 62.7567 9.19023 61.142C9.19023 60.3393 9.31623 59.6253 9.56823 59C9.82023 58.3653 10.1656 57.8333 10.6042 57.404C11.0429 56.9653 11.5656 56.634 12.1722 56.41C12.7789 56.186 13.4369 56.074 14.1462 56.074C14.5569 56.074 14.9302 56.1067 15.2662 56.172C15.6022 56.228 15.8962 56.298 16.1482 56.382C16.4002 56.4567 16.6102 56.536 16.7782 56.62C16.9462 56.704 17.0676 56.7693 17.1422 56.816L16.5122 58.58C16.2136 58.4213 15.8636 58.286 15.4622 58.174C15.0702 58.062 14.6222 58.006 14.1182 58.006C13.7822 58.006 13.4509 58.062 13.1242 58.174C12.8069 58.286 12.5222 58.468 12.2702 58.72C12.0276 58.9627 11.8316 59.28 11.6822 59.672C11.5329 60.064 11.4582 60.54 11.4582 61.1C11.4582 61.548 11.5049 61.968 11.5982 62.36C11.7009 62.7427 11.8596 63.074 12.0742 63.354C12.2982 63.634 12.5876 63.858 12.9422 64.026C13.2969 64.1847 13.7262 64.264 14.2302 64.264C14.5476 64.264 14.8322 64.2453 15.0842 64.208C15.3362 64.1707 15.5602 64.1287 15.7562 64.082C15.9522 64.026 16.1249 63.9653 16.2742 63.9C16.4236 63.8347 16.5589 63.774 16.6802 63.718L17.2822 65.468C16.9742 65.6547 16.5402 65.8227 15.9802 65.972C15.4202 66.1213 14.7716 66.196 14.0342 66.196ZM20.1669 61.142C20.1669 61.618 20.2229 62.0473 20.3349 62.43C20.4562 62.8127 20.6242 63.144 20.8389 63.424C21.0629 63.6947 21.3336 63.9047 21.6509 64.054C21.9682 64.2033 22.3322 64.278 22.7429 64.278C23.1442 64.278 23.5036 64.2033 23.8209 64.054C24.1476 63.9047 24.4182 63.6947 24.6329 63.424C24.8569 63.144 25.0249 62.8127 25.1369 62.43C25.2582 62.0473 25.3189 61.618 25.3189 61.142C25.3189 60.666 25.2582 60.2367 25.1369 59.854C25.0249 59.462 24.8569 59.1307 24.6329 58.86C24.4182 58.58 24.1476 58.3653 23.8209 58.216C23.5036 58.0667 23.1442 57.992 22.7429 57.992C22.3322 57.992 21.9682 58.0713 21.6509 58.23C21.3336 58.3793 21.0629 58.594 20.8389 58.874C20.6242 59.1447 20.4562 59.476 20.3349 59.868C20.2229 60.2507 20.1669 60.6753 20.1669 61.142ZM27.5729 61.142C27.5729 61.9727 27.4469 62.7053 27.1949 63.34C26.9522 63.9653 26.6162 64.4927 26.1869 64.922C25.7576 65.342 25.2442 65.6593 24.6469 65.874C24.0589 66.0887 23.4242 66.196 22.7429 66.196C22.0802 66.196 21.4549 66.0887 20.8669 65.874C20.2789 65.6593 19.7656 65.342 19.3269 64.922C18.8882 64.4927 18.5429 63.9653 18.2909 63.34C18.0389 62.7053 17.9129 61.9727 17.9129 61.142C17.9129 60.3113 18.0436 59.5833 18.3049 58.958C18.5662 58.3233 18.9162 57.7913 19.3549 57.362C19.8029 56.9327 20.3162 56.6107 20.8949 56.396C21.4829 56.1813 22.0989 56.074 22.7429 56.074C23.4056 56.074 24.0309 56.1813 24.6189 56.396C25.2069 56.6107 25.7202 56.9327 26.1589 57.362C26.5976 57.7913 26.9429 58.3233 27.1949 58.958C27.4469 59.5833 27.5729 60.3113 27.5729 61.142ZM35.9034 66C35.2781 64.8893 34.6014 63.7927 33.8734 62.71C33.1454 61.6273 32.3708 60.6053 31.5494 59.644V66H29.3934V56.298H31.1714C31.4794 56.606 31.8201 56.984 32.1934 57.432C32.5668 57.88 32.9448 58.3607 33.3274 58.874C33.7194 59.378 34.1068 59.9053 34.4894 60.456C34.8721 60.9973 35.2314 61.52 35.5674 62.024V56.298H37.7374V66H35.9034ZM41.8095 61.142C41.8095 61.618 41.8655 62.0473 41.9775 62.43C42.0988 62.8127 42.2668 63.144 42.4815 63.424C42.7055 63.6947 42.9761 63.9047 43.2935 64.054C43.6108 64.2033 43.9748 64.278 44.3855 64.278C44.7868 64.278 45.1461 64.2033 45.4635 64.054C45.7901 63.9047 46.0608 63.6947 46.2755 63.424C46.4995 63.144 46.6675 62.8127 46.7795 62.43C46.9008 62.0473 46.9615 61.618 46.9615 61.142C46.9615 60.666 46.9008 60.2367 46.7795 59.854C46.6675 59.462 46.4995 59.1307 46.2755 58.86C46.0608 58.58 45.7901 58.3653 45.4635 58.216C45.1461 58.0667 44.7868 57.992 44.3855 57.992C43.9748 57.992 43.6108 58.0713 43.2935 58.23C42.9761 58.3793 42.7055 58.594 42.4815 58.874C42.2668 59.1447 42.0988 59.476 41.9775 59.868C41.8655 60.2507 41.8095 60.6753 41.8095 61.142ZM49.2155 61.142C49.2155 61.9727 49.0895 62.7053 48.8375 63.34C48.5948 63.9653 48.2588 64.4927 47.8295 64.922C47.4001 65.342 46.8868 65.6593 46.2895 65.874C45.7015 66.0887 45.0668 66.196 44.3855 66.196C43.7228 66.196 43.0975 66.0887 42.5095 65.874C41.9215 65.6593 41.4081 65.342 40.9695 64.922C40.5308 64.4927 40.1855 63.9653 39.9335 63.34C39.6815 62.7053 39.5555 61.9727 39.5555 61.142C39.5555 60.3113 39.6861 59.5833 39.9475 58.958C40.2088 58.3233 40.5588 57.7913 40.9975 57.362C41.4455 56.9327 41.9588 56.6107 42.5375 56.396C43.1255 56.1813 43.7415 56.074 44.3855 56.074C45.0481 56.074 45.6735 56.1813 46.2615 56.396C46.8495 56.6107 47.3628 56.9327 47.8015 57.362C48.2401 57.7913 48.5855 58.3233 48.8375 58.958C49.0895 59.5833 49.2155 60.3113 49.2155 61.142ZM53.612 56.298C53.78 56.606 53.9713 56.9887 54.186 57.446C54.41 57.894 54.6387 58.384 54.872 58.916C55.1147 59.4387 55.3527 59.9753 55.586 60.526C55.8193 61.0767 56.0387 61.5947 56.244 62.08C56.4493 61.5947 56.6687 61.0767 56.902 60.526C57.1353 59.9753 57.3687 59.4387 57.602 58.916C57.8447 58.384 58.0733 57.894 58.288 57.446C58.512 56.9887 58.708 56.606 58.876 56.298H60.864C60.9573 56.942 61.0413 57.6653 61.116 58.468C61.2 59.2613 61.27 60.092 61.326 60.96C61.3913 61.8187 61.4473 62.682 61.494 63.55C61.55 64.418 61.5967 65.2347 61.634 66H59.506C59.478 65.0573 59.4407 64.0307 59.394 62.92C59.3473 61.8093 59.2773 60.6893 59.184 59.56C59.016 59.952 58.8293 60.386 58.624 60.862C58.4187 61.338 58.2133 61.814 58.008 62.29C57.812 62.766 57.6207 63.2233 57.434 63.662C57.2473 64.0913 57.0887 64.46 56.958 64.768H55.432C55.3013 64.46 55.1427 64.0913 54.956 63.662C54.7693 63.2233 54.5733 62.766 54.368 62.29C54.172 61.814 53.9713 61.338 53.766 60.862C53.5607 60.386 53.374 59.952 53.206 59.56C53.1127 60.6893 53.0427 61.8093 52.996 62.92C52.9493 64.0307 52.912 65.0573 52.884 66H50.756C50.7933 65.2347 50.8353 64.418 50.882 63.55C50.938 62.682 50.994 61.8187 51.05 60.96C51.1153 60.092 51.1853 59.2613 51.26 58.468C51.344 57.6653 51.4327 56.942 51.526 56.298H53.612ZM63.6005 56.298H65.7845V66H63.6005V56.298ZM74.8762 57.81C74.5775 58.118 74.2228 58.5193 73.8122 59.014C73.4015 59.4993 72.9768 60.0313 72.5382 60.61C72.0995 61.1887 71.6655 61.786 71.2362 62.402C70.8068 63.018 70.4242 63.606 70.0882 64.166H75.0302V66H67.4002V64.698C67.6615 64.222 67.9788 63.6947 68.3522 63.116C68.7348 62.528 69.1315 61.94 69.5422 61.352C69.9528 60.7547 70.3682 60.1807 70.7882 59.63C71.2175 59.07 71.6142 58.5707 71.9782 58.132H67.6242V56.298H74.8762V57.81ZM76.5751 66V56.298H83.1271V58.132H78.7591V60.036H82.6371V61.828H78.7591V64.166H83.4491V66H76.5751Z" fill="#00FFA3"/>
<circle cx="42" cy="24" r="24" fill="#00FFA3"/>
<path d="M42 17V19" stroke="#124040" stroke-width="2" stroke-linecap="round" stroke-linejoin="round"/>
<path d="M42 29V31" stroke="#124040" stroke-width="2" stroke-linecap="round" stroke-linejoin="round"/>
<path d="M42 36C48.6274 36 54 30.6274 54 24C54 17.3726 48.6274 12 42 12C35.3726 12 30 17.3726 30 24C30 30.6274 35.3726 36 42 36Z" stroke="#124040" stroke-width="2" stroke-linecap="round" stroke-linejoin="round"/>
<path d="M39 29H43.5C44.163 29 44.7989 28.7366 45.2678 28.2678C45.7366 27.7989 46 27.163 46 26.5C46 25.837 45.7366 25.2011 45.2678 24.7322C44.7989 24.2634 44.163 24 43.5 24H40.5C39.837 24 39.2011 23.7366 38.7322 23.2678C38.2634 22.7989 38 22.163 38 21.5C38 20.837 38.2634 20.2011 38.7322 19.7322C39.2011 19.2634 39.837 19 40.5 19H45" stroke="#124040" stroke-width="2" stroke-linecap="round" stroke-linejoin="round"/>
</svg>
