<svg width="151" height="154" viewBox="0 0 151 154" fill="none" xmlns="http://www.w3.org/2000/svg">
<g filter="url(#filter0_d_206_456)">
<ellipse cx="75.7311" cy="76.5236" rx="71.7311" ry="73.4764" fill="#00FFA3"/>
<g filter="url(#filter1_d_206_456)">
<path d="M143.623 75.3019C143.623 57.3422 136.488 40.1181 123.789 27.4187C111.089 14.7193 93.8654 7.5849 75.9057 7.5849C57.946 7.5849 40.722 14.7193 28.0226 27.4187C15.3232 40.1181 8.18872 57.3422 8.18872 75.3019L75.9057 75.3019H143.623Z" fill="#124040"/>
</g>
<g filter="url(#filter2_d_206_456)">
<path d="M87.0887 71.3124L64.4779 48.7015C64.122 48.3456 63.8551 47.9516 63.6772 47.5195C63.4992 47.0874 63.4039 46.6489 63.3912 46.204C63.4039 45.7592 63.4992 45.3207 63.6772 44.8886C63.8551 44.4564 64.122 44.0624 64.4779 43.7065L89.3193 18.8651L94.2762 23.822L71.8941 46.204L92.0456 66.3555L87.0887 71.3124Z" fill="#00FFA3"/>
</g>
<g filter="url(#filter3_d_206_456)">
<path d="M93.7832 50L65.8037 50C65.3633 50 64.9544 49.9214 64.5769 49.7641C64.1995 49.6068 63.8692 49.3945 63.5861 49.1271C63.3187 48.844 63.1064 48.5137 62.9491 48.1363C62.7918 47.7588 62.7132 47.3499 62.7132 46.9095L62.7132 16.1698H68.847V43.8662L93.7832 43.8662V50Z" fill="#00FFA3"/>
</g>
<path d="M38.8599 102.67H18.8746C18.56 102.67 18.2679 102.614 17.9983 102.501C17.7287 102.389 17.4928 102.237 17.2906 102.046C17.0996 101.844 16.9479 101.608 16.8356 101.339C16.7232 101.069 16.6671 100.777 16.6671 100.462V78.5054H21.0483V98.2885H38.8599V102.67ZM61.4066 96.5192C61.4066 97.2718 61.3111 97.9515 61.1201 98.5581C60.9292 99.1535 60.6764 99.6815 60.3618 100.142C60.0473 100.592 59.6822 100.979 59.2665 101.305C58.8509 101.619 58.4127 101.878 57.9521 102.08C57.5028 102.282 57.0422 102.434 56.5704 102.535C56.1098 102.625 55.6716 102.67 55.256 102.67H47.3528C46.7462 102.67 46.0834 102.563 45.3644 102.35C44.6454 102.136 43.977 101.788 43.3591 101.305C42.7525 100.811 42.2413 100.176 41.8257 99.4007C41.4213 98.6143 41.219 97.6538 41.219 96.5192V90.5876C41.219 89.4642 41.4213 88.5149 41.8257 87.7398C42.2413 86.9534 42.7525 86.3187 43.3591 85.8356C43.977 85.3413 44.6454 84.9874 45.3644 84.774C46.0834 84.5605 46.7462 84.4538 47.3528 84.4538H55.256C56.3794 84.4538 57.3343 84.656 58.1207 85.0605C58.907 85.4649 59.5418 85.976 60.0248 86.5939C60.5079 87.2005 60.8561 87.8633 61.0696 88.5823C61.2943 89.3013 61.4066 89.9697 61.4066 90.5876V96.5192ZM57.0253 90.6213C57.0253 90.0147 56.8737 89.5653 56.5704 89.2732C56.267 88.9811 55.8289 88.8351 55.256 88.8351H47.3865C46.8024 88.8351 46.3586 88.9867 46.0553 89.2901C45.752 89.5822 45.6003 90.0147 45.6003 90.5876V96.5192C45.6003 97.0921 45.752 97.5302 46.0553 97.8335C46.3586 98.1369 46.8024 98.2885 47.3865 98.2885H55.256C55.8514 98.2885 56.2951 98.1369 56.5872 97.8335C56.8793 97.5302 57.0253 97.0921 57.0253 96.5192V90.6213ZM95.1424 84.4538C94.4459 86.0153 93.6932 87.5544 92.8844 89.071C92.0755 90.5764 91.2274 92.0031 90.3399 93.3512C89.4636 94.6993 88.5649 95.9462 87.6437 97.0921C86.7225 98.2267 85.8069 99.2097 84.897 100.041C83.9982 100.861 83.1164 101.507 82.2514 101.979C81.3976 102.44 80.5887 102.67 79.8248 102.67C79.5103 102.67 79.2182 102.614 78.9486 102.501C78.6789 102.389 78.443 102.237 78.2408 102.046C78.0386 101.844 77.8813 101.608 77.769 101.339C77.6566 101.069 77.6005 100.777 77.6005 100.462V92.2896L68.9053 102.013C68.6806 102.237 68.4335 102.406 68.1639 102.518C67.9055 102.619 67.6359 102.67 67.355 102.67C67.0517 102.67 66.7652 102.614 66.4956 102.501C66.2372 102.389 66.0069 102.237 65.8047 102.046C65.6025 101.844 65.4396 101.608 65.3161 101.339C65.2037 101.069 65.1475 100.777 65.1475 100.462V84.4538H69.5288V94.8341L78.2577 85.0773C78.5722 84.7627 78.9429 84.5662 79.3698 84.4875C79.808 84.3976 80.2348 84.4426 80.6505 84.6223C81.0662 84.7908 81.392 85.0605 81.6279 85.4312C81.875 85.7907 81.9986 86.1895 81.9986 86.6276V97.0415C82.9423 96.1316 83.796 95.1711 84.56 94.16C85.3239 93.149 86.0316 92.1098 86.6832 91.0426C87.346 89.9641 87.9639 88.8744 88.5368 87.7735C89.121 86.6613 89.6883 85.5547 90.2388 84.4538H95.1424Z" fill="#124040"/>
<path d="M51.4259 130.594H31.4406C31.126 130.594 30.834 130.538 30.5643 130.426C30.2947 130.314 30.0588 130.162 29.8566 129.971C29.6656 129.769 29.514 129.533 29.4016 129.263C29.2893 128.994 29.2331 128.701 29.2331 128.387V106.43H33.6144V126.213H51.4259V130.594ZM58.6045 108.637H54.2232V104.677H58.6045V108.637ZM58.6045 130.594H54.2232V112.378H58.6045V130.594ZM82.6341 132.347C82.6341 133.1 82.5386 133.774 82.3476 134.369C82.1566 134.976 81.9039 135.504 81.5893 135.953C81.2748 136.414 80.9097 136.801 80.494 137.116C80.0783 137.442 79.6402 137.706 79.1796 137.908C78.7303 138.11 78.2697 138.256 77.7978 138.346C77.3372 138.447 76.8991 138.498 76.4835 138.498H68.5803V134.116H76.4835C77.0789 134.116 77.5226 133.965 77.8147 133.661C78.1068 133.358 78.2528 132.92 78.2528 132.347V118.512C78.2528 117.939 78.1068 117.507 77.8147 117.215C77.5226 116.911 77.0789 116.76 76.4835 116.76H68.5803C68.0411 116.76 67.6142 116.928 67.2996 117.265C66.9851 117.591 66.8278 118.007 66.8278 118.512V124.444C66.8278 125.017 66.9795 125.455 67.2828 125.758C67.5861 126.061 68.0298 126.213 68.614 126.213H76.4835V130.594H68.5803C68.1646 130.594 67.7265 130.549 67.2659 130.46C66.8053 130.358 66.3447 130.207 65.8841 130.005C65.4348 129.802 65.0023 129.544 64.5866 129.229C64.171 128.904 63.8058 128.516 63.4913 128.067C63.1767 127.606 62.924 127.078 62.733 126.483C62.542 125.876 62.4465 125.196 62.4465 124.444V118.512C62.4465 118.096 62.4915 117.658 62.5813 117.198C62.6824 116.737 62.8341 116.282 63.0363 115.833C63.2385 115.372 63.4969 114.934 63.8115 114.518C64.1372 114.103 64.5248 113.738 64.9742 113.423C65.4348 113.109 65.9628 112.856 66.5582 112.665C67.1536 112.474 67.8276 112.378 68.5803 112.378H76.4835C76.8991 112.378 77.3372 112.429 77.7978 112.53C78.2697 112.62 78.7303 112.766 79.1796 112.968C79.6402 113.17 80.0783 113.434 80.494 113.76C80.9097 114.075 81.2748 114.462 81.5893 114.923C81.9039 115.372 82.1566 115.895 82.3476 116.49C82.5386 117.085 82.6341 117.759 82.6341 118.512V132.347ZM106.9 130.594H102.518V118.512C102.518 117.939 102.372 117.507 102.08 117.215C101.788 116.911 101.35 116.76 100.766 116.76H92.8627V112.378H100.766C101.181 112.378 101.62 112.429 102.08 112.53C102.541 112.62 102.996 112.766 103.445 112.968C103.906 113.17 104.344 113.434 104.76 113.76C105.175 114.075 105.54 114.462 105.855 114.923C106.169 115.372 106.422 115.895 106.613 116.49C106.804 117.085 106.9 117.759 106.9 118.512V130.594ZM91.0933 130.594H86.712V104.677H91.0933V130.594ZM127.374 116.76H119.723V130.594H115.291V116.76H109.596V112.378H115.291V106.43H119.723V112.378H127.374V116.76Z" fill="#124040"/>
</g>
<defs>
<filter id="filter0_d_206_456" x="0.937015" y="0.749942" width="149.588" height="153.079" filterUnits="userSpaceOnUse" color-interpolation-filters="sRGB">
<feFlood flood-opacity="0" result="BackgroundImageFix"/>
<feColorMatrix in="SourceAlpha" type="matrix" values="0 0 0 0 0 0 0 0 0 0 0 0 0 0 0 0 0 0 127 0" result="hardAlpha"/>
<feOffset dy="0.765746"/>
<feGaussianBlur stdDeviation="1.53149"/>
<feComposite in2="hardAlpha" operator="out"/>
<feColorMatrix type="matrix" values="0 0 0 0 0 0 0 0 0 0 0 0 0 0 0 0 0 0 0.25 0"/>
<feBlend mode="normal" in2="BackgroundImageFix" result="effect1_dropShadow_206_456"/>
<feBlend mode="normal" in="SourceGraphic" in2="effect1_dropShadow_206_456" result="shape"/>
</filter>
<filter id="filter1_d_206_456" x="5.42784" y="5.51424" width="140.956" height="73.2387" filterUnits="userSpaceOnUse" color-interpolation-filters="sRGB">
<feFlood flood-opacity="0" result="BackgroundImageFix"/>
<feColorMatrix in="SourceAlpha" type="matrix" values="0 0 0 0 0 0 0 0 0 0 0 0 0 0 0 0 0 0 127 0" result="hardAlpha"/>
<feOffset dy="0.690219"/>
<feGaussianBlur stdDeviation="1.38044"/>
<feColorMatrix type="matrix" values="0 0 0 0 0 0 0 0 0 0 0 0 0 0 0 0 0 0 0.25 0"/>
<feBlend mode="normal" in2="BackgroundImageFix" result="effect1_dropShadow_206_456"/>
<feBlend mode="normal" in="SourceGraphic" in2="effect1_dropShadow_206_456" result="shape"/>
</filter>
<filter id="filter2_d_206_456" x="60.6" y="18.8651" width="55.208" height="55.2081" filterUnits="userSpaceOnUse" color-interpolation-filters="sRGB">
<feFlood flood-opacity="0" result="BackgroundImageFix"/>
<feColorMatrix in="SourceAlpha" type="matrix" values="0 0 0 0 0 0 0 0 0 0 0 0 0 0 0 0 0 0 127 0" result="hardAlpha"/>
<feOffset dy="1.38044"/>
<feGaussianBlur stdDeviation="0.690219"/>
<feColorMatrix type="matrix" values="0 0 0 0 0 0 0 0 0 0 0 0 0 0 0 0 0 0 0.25 0"/>
<feBlend mode="normal" in2="BackgroundImageFix" result="effect1_dropShadow_206_456"/>
<feBlend mode="normal" in="SourceGraphic" in2="effect1_dropShadow_206_456" result="shape"/>
</filter>
<filter id="filter3_d_206_456" x="61.3327" y="16.1698" width="33.8309" height="36.5911" filterUnits="userSpaceOnUse" color-interpolation-filters="sRGB">
<feFlood flood-opacity="0" result="BackgroundImageFix"/>
<feColorMatrix in="SourceAlpha" type="matrix" values="0 0 0 0 0 0 0 0 0 0 0 0 0 0 0 0 0 0 127 0" result="hardAlpha"/>
<feOffset dy="1.38044"/>
<feGaussianBlur stdDeviation="0.690219"/>
<feColorMatrix type="matrix" values="0 0 0 0 0 0 0 0 0 0 0 0 0 0 0 0 0 0 0.25 0"/>
<feBlend mode="normal" in2="BackgroundImageFix" result="effect1_dropShadow_206_456"/>
<feBlend mode="normal" in="SourceGraphic" in2="effect1_dropShadow_206_456" result="shape"/>
</filter>
</defs>
</svg>
